<svg xmlns="http://www.w3.org/2000/svg" xmlns:xlink="http://www.w3.org/1999/xlink" width="800" zoomAndPan="magnify" viewBox="0 0 600 449.999984" height="600" preserveAspectRatio="xMidYMid meet" version="1.0"><defs><clipPath id="c67c456949"><path d="M 11.824219 26 L 266 26 L 266 388 L 11.824219 388 Z M 11.824219 26 " clip-rule="nonzero"/></clipPath><clipPath id="369e6b9f30"><path d="M 310 237 L 587.824219 237 L 587.824219 246 L 310 246 Z M 310 237 " clip-rule="nonzero"/></clipPath><clipPath id="83be56083b"><path d="M 321 253 L 587.824219 253 L 587.824219 264 L 321 264 Z M 321 253 " clip-rule="nonzero"/></clipPath></defs><path stroke-linecap="butt" transform="matrix(0.749892, 0, 0, 0.749892, -395.896072, -425.540295)" fill="none" stroke-linejoin="miter" d="M 920.972905 792.678021 C 918.4465 793.787555 916.138877 793.667746 914.050035 792.318594 " stroke="#7e7efd" stroke-width="2" stroke-opacity="1" stroke-miterlimit="4"/><path stroke-linecap="butt" transform="matrix(0.749892, 0, 0, 0.749892, -395.896072, -425.540295)" fill="none" stroke-linejoin="miter" d="M 914.050035 792.318594 L 808.086895 632.488341 " stroke="#7e7e7e" stroke-width="2" stroke-opacity="1" stroke-miterlimit="4"/><path stroke-linecap="butt" transform="matrix(0.749892, 0, 0, 0.749892, -395.896072, -425.540295)" fill="none" stroke-linejoin="miter" d="M 803.190359 634.123993 L 876.904074 1067.842551 C 877.3781 1070.691919 878.847061 1071.353472 881.310957 1069.832421 L 1031.603381 976.829476 C 1033.390096 975.740778 1033.702641 974.323908 1032.551434 972.584075 L 997.426596 918.946161 " stroke="#7e7e7e" stroke-width="2" stroke-opacity="1" stroke-miterlimit="4"/><path stroke-linecap="butt" transform="matrix(0.749892, 0, 0, 0.749892, -395.896072, -425.540295)" fill="none" stroke-linejoin="miter" d="M 997.426596 918.946161 C 999.494602 917.013591 1001.854316 916.73751 1004.510947 918.133544 " stroke="#fd7e7e" stroke-width="2" stroke-opacity="1" stroke-miterlimit="4"/><path stroke-linecap="butt" transform="matrix(0.749892, 0, 0, 0.749892, -395.896072, -425.540295)" fill="none" stroke-linejoin="miter" d="M 929.427244 803.877546 L 922.212666 804.007773 " stroke="#7e7efd" stroke-width="2" stroke-opacity="1" stroke-miterlimit="4"/><path stroke-linecap="butt" transform="matrix(0.749892, 0, 0, 0.749892, -395.896072, -425.540295)" fill="none" stroke-linejoin="miter" d="M 914.050035 792.318594 L 878.336571 793.006193 C 876.794683 793.027029 875.976857 793.81881 875.888303 795.386743 L 875.627849 801.002133 C 875.539294 802.528394 876.258147 803.299338 877.784408 803.320175 L 922.212666 804.007773 " stroke="#01007f" stroke-width="2" stroke-opacity="1" stroke-miterlimit="4"/><path stroke-linecap="butt" transform="matrix(0.749892, 0, 0, 0.749892, -395.896072, -425.540295)" fill="none" stroke-linejoin="miter" d="M 922.212666 804.007773 L 928.869872 815.301062 " stroke="#7e7e7e" stroke-width="2" stroke-opacity="1" stroke-miterlimit="4"/><path stroke-linecap="butt" transform="matrix(0.749892, 0, 0, 0.749892, -395.896072, -425.540295)" fill="none" stroke-linejoin="miter" d="M 928.869872 815.301062 L 893.94298 815.920943 C 892.656337 815.94178 892.01562 816.598124 892.01562 817.879558 L 892.01562 823.854375 C 892.01562 825.224363 892.6928 825.911962 894.041952 825.911962 L 932.62562 825.911962 C 933.542419 825.911962 934.38629 826.141161 935.172861 826.594352 L 936.772049 827.542404 " stroke="#007e7f" stroke-width="2" stroke-opacity="1" stroke-miterlimit="4"/><path stroke-linecap="butt" transform="matrix(0.749892, 0, 0, 0.749892, -395.896072, -425.540295)" fill="none" stroke-linejoin="miter" d="M 936.772049 827.542404 L 944.247082 838.023077 " stroke="#7e7e7e" stroke-width="2" stroke-opacity="1" stroke-miterlimit="4"/><path stroke-linecap="butt" transform="matrix(0.749892, 0, 0, 0.749892, -395.896072, -425.540295)" fill="none" stroke-linejoin="miter" d="M 944.247082 838.023077 L 911.278804 838.705466 C 909.861933 838.731512 909.153498 839.455574 909.153498 840.893281 L 909.153498 846.868097 C 909.153498 848.258922 909.861933 848.967357 911.278804 848.988194 L 952.409712 849.707047 " stroke="#008000" stroke-width="2" stroke-opacity="1" stroke-miterlimit="4"/><path stroke-linecap="butt" transform="matrix(0.749892, 0, 0, 0.749892, -395.896072, -425.540295)" fill="none" stroke-linejoin="miter" d="M 952.409712 849.707047 L 958.806465 861.005545 " stroke="#7e7e7e" stroke-width="2" stroke-opacity="1" stroke-miterlimit="4"/><path stroke-linecap="butt" transform="matrix(0.749892, 0, 0, 0.749892, -395.896072, -425.540295)" fill="none" stroke-linejoin="miter" d="M 958.806465 861.005545 C 949.773917 861.958807 940.678861 862.214052 931.516086 861.755653 C 925.93195 861.495199 923.290946 862.833933 924.822416 869.001486 C 925.301651 870.871546 926.49974 871.819599 928.416682 871.840435 L 967.099323 872.559288 " stroke="#7f7e00" stroke-width="2" stroke-opacity="1" stroke-miterlimit="4"/><path stroke-linecap="butt" transform="matrix(0.749892, 0, 0, 0.749892, -395.896072, -425.540295)" fill="none" stroke-linejoin="miter" d="M 967.099323 872.559288 L 973.626302 883.72235 " stroke="#7e7e7e" stroke-width="2" stroke-opacity="1" stroke-miterlimit="4"/><path stroke-linecap="butt" transform="matrix(0.749892, 0, 0, 0.749892, -395.896072, -425.540295)" fill="none" stroke-linejoin="miter" d="M 973.626302 883.72235 L 943.465719 884.831885 C 942.356185 884.85793 941.798813 885.430929 941.798813 886.566509 L 941.798813 892.57258 C 941.798813 893.984241 942.507248 894.713513 943.918909 894.760394 L 982.606759 895.41153 " stroke="#803900" stroke-width="2" stroke-opacity="1" stroke-miterlimit="4"/><path stroke-linecap="butt" transform="matrix(0.749892, 0, 0, 0.749892, -395.896072, -425.540295)" fill="none" stroke-linejoin="miter" d="M 982.606759 895.41153 L 988.315913 905.761975 " stroke="#7e7e7e" stroke-width="2" stroke-opacity="1" stroke-miterlimit="4"/><path stroke-linecap="butt" transform="matrix(0.749892, 0, 0, 0.749892, -395.896072, -425.540295)" fill="none" stroke-linejoin="miter" d="M 988.315913 905.761975 C 979.179183 907.954998 969.828882 908.371725 960.275426 907.001736 C 958.66582 906.762119 957.806321 907.454926 957.69693 909.090578 L 957.238531 915.747785 C 957.12914 917.274045 957.847994 917.956435 959.395091 917.805372 C 972.235477 916.523938 984.914382 916.904201 997.426596 918.946161 " stroke="#800000" stroke-width="2" stroke-opacity="1" stroke-miterlimit="4"/><path stroke-linecap="butt" transform="matrix(0.749892, 0, 0, 0.749892, -395.896072, -425.540295)" fill="none" stroke-linejoin="miter" d="M 935.271834 814.35301 L 928.869872 815.301062 " stroke="#7efcfd" stroke-width="2" stroke-opacity="1" stroke-miterlimit="4"/><path stroke-linecap="butt" transform="matrix(0.749892, 0, 0, 0.749892, -395.896072, -425.540295)" fill="none" stroke-linejoin="miter" d="M 996.478544 907.392418 C 993.561458 908.022716 990.842317 907.480972 988.315913 905.761975 " stroke="#fd7e7e" stroke-width="2" stroke-opacity="1" stroke-miterlimit="4"/><path stroke-linecap="butt" transform="matrix(0.749892, 0, 0, 0.749892, -395.896072, -425.540295)" fill="none" stroke-linejoin="miter" d="M 980.971107 883.72235 C 978.533257 884.769376 976.084989 884.769376 973.626302 883.72235 " stroke="#fdb67e" stroke-width="2" stroke-opacity="1" stroke-miterlimit="4"/><path stroke-linecap="butt" transform="matrix(0.749892, 0, 0, 0.749892, -395.896072, -425.540295)" fill="none" stroke-linejoin="miter" d="M 950.091671 836.517652 C 948.591456 838.34604 946.643259 838.851321 944.247082 838.023077 " stroke="#7efd7e" stroke-width="2" stroke-opacity="1" stroke-miterlimit="4"/><path stroke-linecap="butt" transform="matrix(0.749892, 0, 0, 0.749892, -395.896072, -425.540295)" fill="none" stroke-linejoin="miter" d="M 974.444128 871.741462 L 967.099323 872.559288 " stroke="#fcfc7e" stroke-width="2" stroke-opacity="1" stroke-miterlimit="4"/><path stroke-linecap="butt" transform="matrix(0.749892, 0, 0, 0.749892, -395.896072, -425.540295)" fill="none" stroke-linejoin="miter" d="M 960.436907 850.394646 C 957.847994 848.675649 955.170526 848.446449 952.409712 849.707047 " stroke="#7efd7e" stroke-width="2" stroke-opacity="1" stroke-miterlimit="4"/><path stroke-linecap="butt" transform="matrix(0.749892, 0, 0, 0.749892, -395.896072, -425.540295)" fill="none" stroke-linejoin="miter" d="M 945.028444 826.042189 C 941.897786 825.542117 939.142181 826.042189 936.772049 827.542404 " stroke="#7efcfd" stroke-width="2" stroke-opacity="1" stroke-miterlimit="4"/><path stroke-linecap="butt" transform="matrix(0.749892, 0, 0, 0.749892, -395.896072, -425.540295)" fill="none" stroke-linejoin="miter" d="M 989.133738 894.593704 L 982.606759 895.41153 " stroke="#fdb67e" stroke-width="2" stroke-opacity="1" stroke-miterlimit="4"/><path stroke-linecap="butt" transform="matrix(0.749892, 0, 0, 0.749892, -395.896072, -425.540295)" fill="none" stroke-linejoin="miter" d="M 966.281497 861.135772 L 958.806465 861.005545 " stroke="#fcfc7e" stroke-width="2" stroke-opacity="1" stroke-miterlimit="4"/><g clip-path="url(#c67c456949)"><path stroke-linecap="butt" transform="matrix(0.749892, 0, 0, 0.749892, -395.896072, -425.540295)" fill="none" stroke-linejoin="miter" d="M 554.404618 1025.075991 C 554.316063 1025.227054 554.269182 1025.388536 554.258763 1025.560435 C 554.253554 1025.737544 554.284809 1025.904235 554.362945 1026.060507 C 554.435872 1026.21678 554.545263 1026.347007 554.685908 1026.451188 C 554.826553 1026.55537 554.982826 1026.617879 555.154725 1026.643924 L 870.012458 1072.832852 C 870.179149 1072.864106 870.34584 1072.853688 870.507321 1072.801597 C 870.668803 1072.749506 870.809448 1072.666161 870.929257 1072.546352 C 871.049066 1072.426543 871.13762 1072.280689 871.189711 1072.119207 C 871.241802 1071.957726 871.25222 1071.796244 871.220965 1071.629554 L 793.100367 615.517153 C 793.011813 615.043126 792.725314 614.767045 792.251287 614.688909 C 791.777261 614.605564 791.417834 614.772254 791.178216 615.188981 L 554.404618 1025.075991 " stroke="#7e7e7e" stroke-width="2" stroke-opacity="1" stroke-miterlimit="4"/></g><path fill="#fbfbfb" d="M 294.734375 168.882812 C 292.839844 169.714844 291.109375 169.625 289.542969 168.613281 L 210.082031 48.757812 L 205.578125 42.320312 C 204.433594 40.6875 204.109375 40.835938 204.597656 42.761719 L 206.410156 49.984375 L 261.6875 375.226562 C 262.042969 377.363281 263.144531 377.859375 264.992188 376.71875 L 377.695312 306.976562 C 379.035156 306.160156 379.269531 305.097656 378.40625 303.792969 L 352.066406 263.570312 C 353.617188 262.117188 355.386719 261.914062 357.378906 262.960938 L 383.472656 302.789062 C 383.664062 303.078125 383.824219 303.386719 383.953125 303.707031 C 384.082031 304.03125 384.179688 304.363281 384.242188 304.703125 C 384.304688 305.042969 384.332031 305.390625 384.324219 305.734375 C 384.320312 306.082031 384.277344 306.425781 384.203125 306.765625 C 384.128906 307.105469 384.019531 307.433594 383.878906 307.75 C 383.738281 308.066406 383.566406 308.367188 383.363281 308.648438 C 383.164062 308.933594 382.9375 309.191406 382.683594 309.429688 C 382.429688 309.667969 382.152344 309.878906 381.859375 310.058594 L 262.957031 383.769531 C 262.042969 384.324219 261.058594 384.527344 259.996094 384.378906 L 15 348.371094 C 14.8125 348.34375 14.628906 348.292969 14.449219 348.21875 C 14.273438 348.144531 14.109375 348.050781 13.953125 347.9375 C 13.800781 347.824219 13.660156 347.695312 13.539062 347.546875 C 13.414062 347.398438 13.3125 347.238281 13.230469 347.066406 C 13.144531 346.894531 13.085938 346.714844 13.046875 346.527344 C 13.007812 346.339844 12.992188 346.148438 12.996094 345.957031 C 13.003906 345.765625 13.035156 345.578125 13.089844 345.394531 C 13.140625 345.210938 13.214844 345.035156 13.3125 344.871094 L 197.523438 25.917969 C 197.609375 25.773438 197.710938 25.640625 197.832031 25.519531 C 197.953125 25.398438 198.085938 25.292969 198.234375 25.207031 C 198.378906 25.121094 198.535156 25.054688 198.699219 25.007812 C 198.859375 24.960938 199.027344 24.933594 199.199219 24.929688 C 199.367188 24.921875 199.535156 24.941406 199.703125 24.976562 C 199.867188 25.015625 200.027344 25.074219 200.175781 25.152344 C 200.328125 25.230469 200.46875 25.324219 200.59375 25.4375 C 200.722656 25.550781 200.832031 25.679688 200.925781 25.820312 Z M 19.847656 343.15625 C 19.78125 343.269531 19.746094 343.390625 19.738281 343.519531 C 19.734375 343.652344 19.757812 343.777344 19.816406 343.894531 C 19.871094 344.011719 19.953125 344.109375 20.058594 344.1875 C 20.164062 344.265625 20.28125 344.3125 20.410156 344.332031 L 256.519531 378.96875 C 256.644531 378.992188 256.769531 378.984375 256.890625 378.945312 C 257.011719 378.90625 257.117188 378.84375 257.207031 378.753906 C 257.296875 378.664062 257.363281 378.558594 257.402344 378.433594 C 257.441406 378.3125 257.449219 378.191406 257.425781 378.066406 L 198.84375 36.03125 C 198.777344 35.675781 198.5625 35.46875 198.207031 35.410156 C 197.851562 35.347656 197.582031 35.472656 197.402344 35.785156 Z M 19.847656 343.15625 " fill-opacity="1" fill-rule="nonzero"/><path fill="#000000" d="M 19.847656 343.15625 L 197.402344 35.785156 C 197.582031 35.472656 197.851562 35.347656 198.207031 35.410156 C 198.5625 35.46875 198.777344 35.675781 198.84375 36.03125 L 257.425781 378.066406 C 257.449219 378.191406 257.441406 378.3125 257.402344 378.433594 C 257.363281 378.558594 257.296875 378.664062 257.207031 378.753906 C 257.117188 378.84375 257.011719 378.90625 256.890625 378.945312 C 256.769531 378.984375 256.644531 378.992188 256.519531 378.96875 L 20.410156 344.332031 C 20.28125 344.3125 20.164062 344.265625 20.058594 344.1875 C 19.953125 344.109375 19.871094 344.011719 19.816406 343.894531 C 19.757812 343.777344 19.734375 343.652344 19.738281 343.519531 C 19.746094 343.390625 19.78125 343.269531 19.847656 343.15625 Z M 19.847656 343.15625 " fill-opacity="1" fill-rule="nonzero"/><path fill="#000000" d="M 210.082031 48.757812 L 289.542969 168.613281 L 262.761719 169.128906 C 261.605469 169.144531 260.992188 169.738281 260.925781 170.914062 L 260.730469 175.125 C 260.664062 176.269531 261.203125 176.847656 262.347656 176.863281 L 295.664062 177.378906 L 300.65625 185.847656 L 274.464844 186.3125 C 273.5 186.328125 273.019531 186.820312 273.019531 187.78125 L 273.019531 192.261719 C 273.019531 193.289062 273.527344 193.804688 274.539062 193.804688 L 303.472656 193.804688 C 304.160156 193.804688 304.792969 193.976562 305.382812 194.316406 L 306.582031 195.027344 L 312.1875 202.886719 L 287.464844 203.398438 C 286.402344 203.417969 285.871094 203.960938 285.871094 205.039062 L 285.871094 209.519531 C 285.871094 210.5625 286.402344 211.09375 287.464844 211.109375 L 318.308594 211.648438 L 323.105469 220.121094 C 316.332031 220.835938 309.511719 221.027344 302.640625 220.683594 C 298.453125 220.488281 296.472656 221.492188 297.621094 226.117188 C 297.980469 227.519531 298.878906 228.230469 300.316406 228.246094 L 329.324219 228.785156 L 334.21875 237.15625 L 311.601562 237.988281 C 310.769531 238.007812 310.351562 238.4375 310.351562 239.289062 L 310.351562 243.792969 C 310.351562 244.851562 310.882812 245.398438 311.941406 245.433594 L 340.953125 245.921875 L 345.234375 253.683594 C 338.382812 255.328125 331.371094 255.640625 324.207031 254.613281 C 323 254.433594 322.355469 254.953125 322.273438 256.179688 L 321.929688 261.171875 C 321.847656 262.316406 322.386719 262.828125 323.546875 262.714844 C 333.175781 261.75 342.683594 262.039062 352.066406 263.570312 L 378.40625 303.792969 C 379.269531 305.097656 379.035156 306.160156 377.695312 306.976562 L 264.992188 376.71875 C 263.144531 377.859375 262.042969 377.363281 261.6875 375.226562 L 206.410156 49.984375 Z M 210.082031 48.757812 " fill-opacity="1" fill-rule="nonzero"/><path fill="#0100fe" d="M 289.542969 168.613281 C 291.109375 169.625 292.839844 169.714844 294.734375 168.882812 L 537.011719 169.226562 C 538.089844 169.226562 538.628906 169.765625 538.628906 170.839844 L 538.628906 175.125 C 538.628906 176.152344 538.113281 176.667969 537.085938 176.667969 L 301.785156 176.667969 C 301.488281 176.667969 301.300781 176.773438 301.222656 176.984375 C 301.171875 177.101562 301.121094 177.199219 301.074219 177.28125 L 295.664062 177.378906 L 262.347656 176.863281 C 261.203125 176.847656 260.664062 176.269531 260.730469 175.125 L 260.925781 170.914062 C 260.992188 169.738281 261.605469 169.144531 262.761719 169.128906 Z M 289.542969 168.613281 " fill-opacity="1" fill-rule="nonzero"/><path fill="#fbfbfb" d="M 301.074219 177.28125 L 305.457031 185.136719 L 300.65625 185.847656 L 295.664062 177.378906 Z M 301.074219 177.28125 " fill-opacity="1" fill-rule="nonzero"/><path fill="#00fcfe" d="M 305.457031 185.136719 C 310.90625 185.988281 314.421875 186.410156 316.007812 186.410156 C 393.820312 186.460938 471.488281 186.476562 549.007812 186.460938 C 549.359375 186.460938 549.675781 186.558594 549.957031 186.757812 C 550.242188 186.953125 550.4375 187.214844 550.550781 187.535156 C 551.886719 191.355469 550.769531 193.273438 547.195312 193.289062 C 469.070312 193.582031 390.933594 193.789062 312.773438 193.902344 C 310.425781 193.527344 308.359375 193.902344 306.582031 195.027344 L 305.382812 194.316406 C 304.792969 193.976562 304.160156 193.804688 303.472656 193.804688 L 274.539062 193.804688 C 273.527344 193.804688 273.019531 193.289062 273.019531 192.261719 L 273.019531 187.78125 C 273.019531 186.820312 273.5 186.328125 274.464844 186.3125 L 300.65625 185.847656 Z M 305.457031 185.136719 " fill-opacity="1" fill-rule="nonzero"/><path fill="#fbfbfb" d="M 312.773438 193.902344 L 316.570312 201.757812 C 315.445312 203.128906 313.984375 203.503906 312.1875 202.886719 L 306.582031 195.027344 C 308.359375 193.902344 310.425781 193.527344 312.773438 193.902344 Z M 312.773438 193.902344 " fill-opacity="1" fill-rule="nonzero"/><path fill="#00ff00" d="M 316.570312 201.757812 C 319.261719 202.871094 322.136719 203.425781 325.1875 203.425781 C 404.011719 203.570312 482.839844 203.628906 561.664062 203.59375 C 562.722656 203.59375 563.222656 204.125 563.15625 205.1875 L 562.960938 209.324219 C 562.894531 210.402344 562.324219 210.941406 561.246094 210.941406 L 325.089844 210.941406 C 324.746094 210.941406 324.535156 211.101562 324.453125 211.429688 C 324.386719 211.722656 324.347656 211.96875 324.328125 212.164062 C 322.386719 210.875 320.378906 210.703125 318.308594 211.648438 L 287.464844 211.109375 C 286.402344 211.09375 285.871094 210.5625 285.871094 209.519531 L 285.871094 205.039062 C 285.871094 203.960938 286.402344 203.417969 287.464844 203.398438 L 312.1875 202.886719 C 313.984375 203.503906 315.445312 203.128906 316.570312 201.757812 Z M 316.570312 201.757812 " fill-opacity="1" fill-rule="nonzero"/><path fill="#fbfbfb" d="M 324.328125 212.164062 L 328.710938 220.21875 L 323.105469 220.121094 L 318.308594 211.648438 C 320.378906 210.703125 322.386719 210.875 324.328125 212.164062 Z M 324.328125 212.164062 " fill-opacity="1" fill-rule="nonzero"/><path fill="#fdfc00" d="M 323.105469 220.121094 L 328.710938 220.21875 L 573.390625 220.558594 C 574.53125 220.558594 575.136719 221.132812 575.199219 222.273438 L 575.398438 226.535156 C 575.460938 227.578125 574.972656 228.101562 573.929688 228.101562 L 334.832031 228.171875 L 329.324219 228.785156 L 300.316406 228.246094 C 298.878906 228.230469 297.980469 227.519531 297.621094 226.117188 C 296.472656 221.492188 298.453125 220.488281 302.640625 220.683594 C 309.511719 221.027344 316.332031 220.835938 323.105469 220.121094 Z M 323.105469 220.121094 " fill-opacity="1" fill-rule="nonzero"/><path fill="#fbfbfb" d="M 334.832031 228.171875 L 339.726562 237.15625 C 337.898438 237.941406 336.0625 237.941406 334.21875 237.15625 L 329.324219 228.785156 Z M 334.832031 228.171875 " fill-opacity="1" fill-rule="nonzero"/><g clip-path="url(#369e6b9f30)"><path fill="#ff7100" d="M 334.21875 237.15625 C 336.0625 237.941406 337.898438 237.941406 339.726562 237.15625 C 344.035156 237.5 348.566406 238.1875 352.800781 238.136719 C 430.515625 237.238281 508.238281 237.199219 585.972656 238.015625 C 587.164062 238.015625 587.71875 238.617188 587.636719 239.824219 L 587.320312 243.742188 C 587.238281 244.738281 586.691406 245.234375 585.679688 245.234375 L 345.847656 245.308594 L 340.953125 245.921875 L 311.941406 245.433594 C 310.882812 245.398438 310.351562 244.851562 310.351562 243.792969 L 310.351562 239.289062 C 310.351562 238.4375 310.769531 238.007812 311.601562 237.988281 Z M 334.21875 237.15625 " fill-opacity="1" fill-rule="nonzero"/></g><path fill="#fbfbfb" d="M 345.847656 245.308594 L 351.355469 254.90625 C 349.167969 255.378906 347.128906 254.972656 345.234375 253.683594 L 340.953125 245.921875 Z M 345.847656 245.308594 " fill-opacity="1" fill-rule="nonzero"/><g clip-path="url(#83be56083b)"><path fill="#ff0000" d="M 345.234375 253.683594 C 347.128906 254.972656 349.167969 255.378906 351.355469 254.90625 L 598.140625 254.980469 C 599.265625 254.980469 599.804688 255.542969 599.753906 256.667969 L 599.582031 260.902344 C 599.535156 261.867188 599.027344 262.347656 598.066406 262.347656 L 358.085938 262.347656 C 357.792969 262.347656 357.605469 262.453125 357.523438 262.664062 C 357.476562 262.78125 357.425781 262.878906 357.378906 262.960938 C 355.386719 261.914062 353.617188 262.117188 352.066406 263.570312 C 342.683594 262.039062 333.175781 261.75 323.546875 262.714844 C 322.386719 262.828125 321.847656 262.316406 321.929688 261.171875 L 322.273438 256.179688 C 322.355469 254.953125 323 254.433594 324.207031 254.613281 C 331.371094 255.640625 338.382812 255.328125 345.234375 253.683594 Z M 345.234375 253.683594 " fill-opacity="1" fill-rule="nonzero"/></g></svg>